<?xml version="1.0" standalone="no"?>
<!DOCTYPE svg PUBLIC "-//W3C//DTD SVG 20010904//EN"
 "http://www.w3.org/TR/2001/REC-SVG-20010904/DTD/svg10.dtd">
<svg version="1.0" xmlns="http://www.w3.org/2000/svg"
 width="375.000000pt" height="375.000000pt" viewBox="0 0 375.000000 375.000000"
 preserveAspectRatio="xMidYMid meet">
<metadata>
Created by potrace 1.14, written by Peter Selinger 2001-2017
</metadata>
<g transform="translate(0.000000,375.000000) scale(0.100000,-0.100000)"
fill="#000000" stroke="none">
<path d="M1698 3685 c-2 -1 -27 -5 -56 -9 -135 -16 -308 -59 -428 -106 -110
-43 -271 -130 -373 -200 -380 -262 -647 -665 -748 -1130 -33 -150 -41 -467
-17 -625 117 -764 680 -1362 1431 -1521 106 -22 193 -29 368 -29 227 0 320 12
500 64 616 178 1093 663 1255 1276 16 61 32 128 35 150 3 22 9 65 14 95 10 58
8 428 -3 470 -3 13 -8 42 -11 65 -19 132 -95 364 -162 500 -209 414 -596 758
-1019 903 -212 72 -384 100 -616 100 -92 0 -168 -1 -170 -3z m427 -120 c380
-63 688 -219 950 -479 197 -197 319 -391 416 -658 21 -60 37 -108 34 -108 -2
0 2 -21 10 -47 30 -106 44 -236 45 -403 0 -119 -1 -141 -15 -236 -40 -283
-151 -551 -324 -784 -73 -98 -235 -260 -336 -336 -231 -174 -518 -294 -790
-330 -27 -3 -53 -8 -57 -10 -9 -6 -328 -5 -358 0 -14 3 -42 7 -62 10 -21 3
-55 9 -75 12 -122 18 -293 75 -430 142 -184 90 -318 187 -468 337 -92 92 -220
248 -233 285 -3 8 -14 27 -24 42 -29 42 -103 194 -133 273 -24 65 -72 237 -80
288 -2 12 -6 45 -10 72 -4 28 -9 61 -11 75 -5 30 -4 281 0 330 2 19 7 54 10
77 4 23 8 55 10 70 7 51 45 187 76 271 132 361 386 670 725 882 177 110 447
203 660 227 28 3 52 7 54 9 7 6 371 -3 416 -11z"/>
<path d="M1715 3233 c-16 -2 -73 -13 -125 -25 -85 -18 -112 -26 -185 -54 -11
-4 -25 -8 -31 -9 -6 -2 -49 -21 -95 -42 -265 -124 -491 -347 -628 -621 -27
-53 -30 -66 -20 -85 12 -22 12 -22 22 8 5 17 13 35 17 40 24 33 78 144 73 149
-4 3 -1 6 4 6 6 0 33 30 59 68 133 187 371 368 589 447 28 10 56 23 63 28 6 5
12 7 12 4 0 -4 17 0 38 7 20 7 71 19 112 25 41 7 86 15 100 17 32 6 308 6 318
1 4 -3 28 -8 53 -11 62 -8 188 -42 251 -67 70 -28 91 -36 103 -40 6 -2 39 -20
74 -40 36 -21 70 -35 79 -32 9 4 13 2 9 -5 -4 -6 7 -20 25 -33 18 -12 57 -43
86 -67 42 -35 56 -42 62 -31 12 18 -12 43 -108 112 -110 78 -247 150 -272 142
-16 -5 -19 -3 -13 11 4 10 2 15 -4 11 -5 -3 -21 0 -34 7 -30 15 -180 57 -229
63 -19 3 -52 8 -72 13 -36 7 -271 9 -333 3z"/>
<path d="M1788 3175 c-1 -2 -32 -6 -68 -9 -74 -6 -221 -40 -253 -58 -12 -7
-26 -11 -30 -10 -5 1 -23 -4 -40 -12 -18 -8 -40 -16 -49 -20 -10 -3 -18 -15
-18 -26 0 -11 -4 -20 -10 -20 -5 0 -10 5 -10 11 0 17 -38 0 -130 -57 -196
-122 -374 -319 -473 -526 -51 -107 -56 -122 -46 -140 6 -11 5 -19 -2 -24 -8
-4 -9 -3 -5 4 4 7 3 12 -2 12 -13 0 -55 -157 -49 -181 3 -10 2 -19 -2 -21 -5
-2 -11 -17 -14 -34 -5 -27 -3 -33 14 -37 12 -3 18 -10 14 -17 -5 -8 -11 -8
-21 1 -11 9 -14 9 -14 -1 0 -7 7 -18 17 -25 13 -9 13 -14 3 -20 -9 -5 -11 -4
-6 3 4 7 1 12 -6 12 -20 0 -17 -65 4 -90 10 -11 14 -20 10 -20 -4 0 0 -5 8
-10 11 -8 12 -12 3 -18 -7 -5 -10 -20 -7 -36 4 -25 2 -28 -16 -23 -11 3 -18 2
-16 -2 2 -3 7 -38 11 -76 4 -39 13 -77 21 -85 8 -9 10 -21 5 -29 -9 -14 -3
-51 8 -51 4 0 8 -14 9 -32 1 -17 12 -39 24 -50 15 -13 19 -21 11 -26 -16 -10
15 -85 33 -78 19 7 30 -14 13 -25 -11 -7 -7 -21 21 -75 19 -36 40 -69 47 -71
7 -3 13 -12 13 -20 0 -30 43 -68 73 -65 30 4 36 -12 10 -26 -14 -8 -12 -15 18
-51 19 -23 40 -39 48 -36 8 3 11 0 8 -9 -3 -9 12 -29 41 -53 25 -21 54 -47 64
-57 16 -18 18 -18 18 -3 0 9 -4 17 -10 17 -5 0 -10 4 -10 9 0 6 9 9 19 8 11 0
17 -6 14 -14 -3 -7 0 -13 6 -13 6 0 11 -5 11 -11 0 -5 -4 -7 -10 -4 -5 3 -10
2 -10 -4 0 -17 22 -24 32 -10 6 10 7 6 2 -11 -6 -22 -5 -23 9 -12 9 8 21 11
27 7 5 -3 10 -1 10 5 0 6 5 8 12 4 8 -5 9 0 6 14 -4 14 1 31 12 45 l19 22 -6
-22 c-3 -13 -10 -23 -16 -23 -5 0 -3 -8 6 -18 23 -25 22 -29 -13 -37 -16 -4
-30 -11 -30 -16 0 -5 4 -8 9 -7 5 2 17 -6 25 -17 14 -18 15 -18 16 -2 0 25 18
21 22 -5 3 -20 35 -44 82 -61 14 -6 17 -3 12 8 -3 8 -1 15 4 15 6 0 13 0 18 0
4 0 8 -9 8 -20 1 -11 3 -22 5 -23 42 -23 52 -28 56 -23 3 3 -2 8 -11 12 -17 6
-20 32 -10 72 7 24 24 30 24 9 0 -8 9 -22 21 -33 11 -10 19 -14 17 -9 -2 6 2
10 7 10 6 0 9 -3 7 -7 -6 -19 10 -5 27 23 10 17 22 26 25 21 3 -6 0 -17 -8
-25 -8 -8 -12 -17 -9 -21 4 -3 1 -6 -5 -6 -7 0 -11 -3 -10 -7 3 -15 -14 -43
-23 -37 -5 3 -16 1 -25 -4 -14 -8 -14 -10 4 -14 13 -4 27 1 38 13 21 23 57 25
75 3 11 -14 13 -14 21 0 5 9 14 16 19 16 6 0 3 -7 -5 -16 -33 -33 -16 -60 44
-68 132 -18 152 -19 161 -5 5 8 9 19 9 24 0 6 -5 3 -10 -5 -8 -13 -10 -12 -10
3 0 9 4 17 9 17 5 0 7 9 4 20 -4 14 0 20 11 20 10 0 17 7 15 18 -4 39 0 43 27
25 l26 -17 -23 -16 c-12 -10 -19 -22 -15 -29 10 -15 56 -14 56 2 0 6 10 -7 22
-31 22 -42 23 -43 73 -41 74 2 240 35 268 53 13 9 26 14 29 11 11 -12 238 90
238 106 0 5 8 5 18 2 15 -6 15 -5 2 11 -18 23 -22 46 -7 47 7 1 17 2 22 4 6 1
16 3 23 3 6 1 12 11 12 22 0 11 -3 19 -7 19 -21 -3 -25 2 -12 14 8 6 12 11 10
9 -3 -1 -16 8 -30 21 -32 29 -62 42 -55 23 4 -10 -2 -12 -22 -8 -26 5 -26 6
-7 13 30 11 36 25 17 43 -14 15 -14 16 0 16 9 0 16 6 16 14 0 13 26 26 63 31
17 2 17 2 0 -15 -10 -9 -24 -15 -30 -12 -7 2 -13 -3 -13 -12 0 -11 9 -16 30
-16 17 0 30 -4 30 -9 0 -5 7 -11 15 -15 13 -4 14 -2 5 14 -7 14 -7 20 0 20 5
0 10 -5 10 -10 0 -6 11 -8 26 -4 28 7 46 -9 37 -33 -4 -9 -8 -11 -12 -5 -4 7
-13 5 -25 -4 -16 -11 -17 -16 -6 -30 13 -14 15 -14 26 0 10 14 13 14 24 2 6
-9 9 -20 5 -26 -15 -25 24 -7 59 27 27 26 36 43 33 59 -3 17 0 21 15 19 10 -2
18 1 18 6 0 6 4 8 8 5 5 -3 24 11 43 31 20 21 27 34 17 30 -12 -4 -18 -1 -18
9 0 10 6 13 19 9 21 -6 46 18 36 35 -4 6 -1 9 7 8 8 -2 12 4 10 17 -2 11 -1
17 3 13 4 -4 17 5 29 20 34 41 76 119 69 126 -3 3 -1 6 5 6 11 0 72 148 76
185 1 11 6 27 10 34 14 21 34 121 25 121 -5 0 -4 11 3 24 8 20 7 28 -6 41 -18
19 -12 39 10 31 10 -4 14 4 15 27 0 18 2 42 5 55 2 12 -1 22 -7 22 -8 0 -8 4
-2 13 5 6 8 39 7 72 -1 33 -3 70 -3 82 -1 17 -5 21 -18 16 -17 -5 -17 -5 -1 8
14 12 16 21 8 54 -5 22 -11 55 -15 72 -14 83 -85 276 -105 288 -6 4 -7 11 -4
17 9 14 -17 29 -41 22 -12 -3 -15 -2 -8 3 19 14 8 56 -28 108 -64 92 -83 115
-96 115 -8 0 -11 -4 -8 -10 3 -5 1 -10 -5 -10 -6 0 -8 10 -4 25 5 21 -4 34
-62 89 -38 36 -72 62 -76 60 -4 -3 -8 1 -8 8 -1 22 -245 183 -262 172 -4 -3
-15 1 -23 9 -22 23 -174 74 -287 98 -88 18 -328 35 -340 24z m-218 -75 c0 -5
-4 -10 -10 -10 -5 0 -10 5 -10 10 0 6 5 10 10 10 6 0 10 -4 10 -10z m63 -15
c-3 -9 -8 -14 -10 -11 -3 3 -2 9 2 15 9 16 15 13 8 -4z m-248 -55 c9 7 16 6
25 -5 10 -13 9 -15 -8 -15 -31 0 -53 11 -45 23 5 8 8 7 11 -1 3 -9 8 -10 17
-2z m219 -43 c-3 -9 -10 -17 -15 -17 -14 0 -22 27 -15 47 6 15 8 15 22 2 8 -9
12 -23 8 -32z m-174 -22 c7 4 14 -2 17 -14 3 -11 9 -18 14 -15 5 3 9 1 9 -5 0
-18 -20 -23 -26 -6 -6 15 -8 15 -24 0 -21 -19 -39 -3 -21 19 7 9 7 16 -2 26
-10 12 -9 12 5 1 9 -7 22 -10 28 -6z m740 1 c0 -16 -18 -31 -27 -22 -8 8 5 36
17 36 5 0 10 -6 10 -14z m-603 -13 c-1 -10 -6 -24 -10 -30 -5 -7 -5 -19 -1
-25 5 -10 4 -10 -6 -1 -8 7 -10 22 -5 42 7 32 27 44 22 14z m83 2 c0 -8 -4
-15 -10 -15 -5 0 -10 7 -10 15 0 8 5 15 10 15 6 0 10 -7 10 -15z m323 -10 c8
-18 -11 -31 -25 -17 -11 11 -3 32 12 32 4 0 10 -7 13 -15z m-469 -30 c3 -8 1
-15 -4 -15 -6 0 -10 7 -10 15 0 8 2 15 4 15 2 0 6 -7 10 -15z m-49 -45 c3 -5
1 -10 -4 -10 -6 0 -11 5 -11 10 0 6 2 10 4 10 3 0 8 -4 11 -10z m1205 -24 c0
-5 -7 -3 -15 4 -8 7 -12 17 -9 22 7 10 24 -9 24 -26z m-600 14 c0 -5 -5 -10
-11 -10 -5 0 -7 5 -4 10 3 6 8 10 11 10 2 0 4 -4 4 -10z m-612 -35 c-3 -3 -9
2 -12 12 -6 14 -5 15 5 6 7 -7 10 -15 7 -18z m727 15 c3 -5 1 -10 -4 -10 -6 0
-11 5 -11 10 0 6 2 10 4 10 3 0 8 -4 11 -10z m-10 -30 c-3 -5 -10 -10 -16 -10
-5 0 -9 5 -9 10 0 6 7 10 16 10 8 0 12 -4 9 -10z m-204 -23 c-10 -9 -11 -8 -5
6 3 10 9 15 12 12 3 -3 0 -11 -7 -18z m434 3 c3 -5 -1 -10 -9 -10 -9 0 -16 5
-16 10 0 6 4 10 9 10 6 0 13 -4 16 -10z m-718 -32 c-3 -8 -6 -5 -6 6 -1 11 2
17 5 13 3 -3 4 -12 1 -19z m-607 -8 c0 -5 -8 -10 -17 -10 -15 0 -16 2 -3 10
19 12 20 12 20 0z m340 -41 c0 -13 -7 -19 -22 -19 -21 -1 -21 -2 -5 -11 9 -5
21 -8 25 -5 5 3 9 -1 9 -9 0 -17 -23 -20 -32 -4 -4 6 -14 8 -22 5 -8 -3 -11
-1 -8 5 4 6 -3 7 -19 3 -27 -6 -32 1 -17 25 5 7 13 11 19 8 5 -4 17 2 27 13
20 22 45 16 45 -11z m235 21 c3 -5 1 -10 -4 -10 -6 0 -11 5 -11 10 0 6 2 10 4
10 3 0 8 -4 11 -10z m-127 -38 c2 -21 -1 -23 -21 -17 -12 4 -30 7 -40 6 -9 0
-15 4 -12 10 4 5 15 9 26 9 10 0 19 4 19 8 0 21 26 6 28 -16z m562 18 c0 -5
-4 -10 -10 -10 -5 0 -10 5 -10 10 0 6 5 10 10 10 6 0 10 -4 10 -10z m-955 -20
c-6 -18 -3 -20 18 -15 18 5 26 2 31 -11 4 -9 4 -19 1 -22 -3 -3 -5 0 -5 7 0 8
-7 10 -20 6 -30 -9 -52 12 -39 36 13 25 22 24 14 -1z m1052 -21 c16 -16 5 -39
-17 -39 -20 0 -30 17 -22 38 5 15 24 16 39 1z m135 -39 c20 0 70 -43 80 -69 5
-14 11 -82 12 -151 1 -105 3 -125 16 -122 11 2 11 -1 -2 -11 -14 -11 -18 -30
-18 -86 0 -50 4 -71 13 -71 9 0 9 -2 -1 -8 -8 -6 -12 -28 -11 -65 1 -31 6 -54
10 -51 4 2 11 0 14 -6 4 -6 1 -9 -7 -8 -9 2 -14 -13 -16 -55 -2 -35 1 -56 6
-53 6 3 12 -1 16 -9 3 -9 0 -15 -10 -15 -12 0 -13 -4 -3 -21 9 -17 13 -19 20
-8 8 13 13 5 10 -15 -1 -5 5 -4 13 3 12 10 17 8 26 -10 7 -12 8 -19 2 -15 -10
6 -27 -10 -27 -26 0 -5 -4 -8 -10 -8 -5 1 -9 9 -7 18 1 9 -7 23 -18 30 -20 12
-20 10 -20 -170 0 -156 -3 -189 -19 -224 -45 -98 -184 -157 -311 -131 -25 5
-52 9 -60 10 -32 4 -117 83 -132 123 -6 19 -16 34 -20 34 -13 0 -9 30 5 31 9
0 9 2 -1 6 -6 2 -9 9 -6 15 3 5 -2 16 -12 23 -18 13 -18 14 1 9 26 -7 58 52
43 79 -6 12 -4 24 6 39 9 12 16 18 16 12 0 -5 -5 -15 -10 -20 -6 -6 -8 -18 -4
-27 5 -14 12 -12 44 16 36 29 43 47 19 47 -6 0 -8 -4 -5 -9 9 -13 -19 -7 -38
8 -9 7 -16 19 -16 25 0 6 5 4 10 -5 9 -16 23 -16 88 -3 14 3 20 9 16 16 -4 7
-3 8 5 4 6 -4 18 -2 26 4 8 7 15 9 15 5 0 -4 7 -2 15 5 9 8 15 9 15 2 0 -6 -4
-14 -10 -17 -5 -3 -10 -12 -10 -18 0 -7 4 -6 10 3 5 8 10 10 10 4 0 -6 13 -9
30 -6 17 2 30 8 30 13 0 5 5 9 11 9 6 0 9 -7 5 -15 -5 -13 -2 -13 19 1 13 9
28 13 33 11 10 -7 10 149 -1 159 -4 5 -13 2 -18 -6 -9 -12 -10 -12 -5 3 3 10
6 23 6 28 0 5 6 9 14 9 7 0 13 10 12 23 0 12 -7 22 -15 22 -8 0 -16 7 -18 15
-3 11 -2 11 4 3 15 -22 29 1 29 50 0 38 -3 47 -14 42 -13 -5 -13 -3 -1 11 10
12 14 47 15 115 1 110 10 104 -91 58 -27 -12 -52 -23 -55 -24 -36 -9 -78 -31
-73 -38 3 -6 1 -7 -5 -3 -5 3 -43 -7 -84 -24 -40 -16 -67 -30 -60 -30 6 0 12
-5 12 -11 0 -6 -8 -8 -18 -5 -29 9 -98 -18 -94 -38 2 -9 -4 -16 -13 -16 -9 0
-13 5 -10 10 8 14 2 13 -45 -6 -22 -9 -41 -21 -41 -28 -6 -47 -4 -223 2 -231
5 -6 4 -26 0 -45 -9 -43 -8 -196 2 -206 4 -4 2 -13 -4 -20 -7 -9 -7 -19 0 -32
6 -11 7 -22 4 -26 -4 -4 -8 -17 -10 -29 -1 -12 -5 -34 -8 -49 -3 -20 0 -28 10
-28 14 0 19 -11 16 -35 -1 -5 5 -2 13 8 12 16 14 15 19 -13 4 -16 13 -30 21
-30 7 0 16 -7 20 -15 6 -16 -9 -21 -19 -6 -3 6 -15 8 -27 6 -24 -5 -37 -15
-18 -15 9 0 10 -3 1 -13 -6 -8 -9 -17 -6 -20 3 -4 2 -4 -2 -1 -5 3 -8 11 -8
17 0 7 -9 11 -20 10 -11 -1 -14 0 -7 3 6 3 12 12 12 19 0 7 7 15 15 19 13 5
13 8 -2 24 -21 22 -30 19 -100 -28 -37 -25 -51 -40 -47 -52 4 -14 -2 -17 -38
-16 -24 0 -46 5 -50 12 -5 6 -8 1 -8 -13 0 -16 4 -22 15 -17 16 6 20 -11 7
-32 -6 -9 -16 -4 -36 17 -15 16 -28 33 -27 38 1 4 -16 8 -37 8 -20 0 -39 2
-42 5 -3 3 -31 18 -62 33 -58 30 -101 78 -113 129 -5 17 -12 25 -19 21 -6 -4
-6 0 2 9 7 9 13 37 14 62 0 25 4 44 8 41 11 -7 33 22 25 34 -3 7 0 8 9 5 9 -3
16 -1 16 5 0 6 -4 11 -9 11 -5 0 -8 11 -8 25 0 15 5 25 14 25 10 0 12 -6 8
-19 -9 -28 9 -33 38 -11 14 11 31 20 39 20 8 1 6 6 -6 15 -28 21 -7 18 43 -6
24 -11 45 -18 49 -15 3 3 -1 6 -8 6 -10 0 -9 5 3 18 13 14 14 21 5 30 -9 9 -9
12 0 12 7 0 13 -4 13 -10 1 -5 2 -15 3 -22 0 -6 7 -13 15 -16 8 -3 11 0 7 7
-4 6 -1 11 8 11 10 0 13 -8 11 -30 -5 -36 8 -39 22 -7 7 14 7 29 2 39 -6 11
-5 19 1 23 6 4 10 3 9 -2 -4 -22 3 -33 21 -33 19 0 20 6 18 98 -1 53 -4 87 -6
75 -2 -13 -7 -23 -12 -23 -7 0 -8 16 -1 63 0 5 6 5 11 2 7 -4 10 61 10 189 0
154 3 204 16 235 l15 39 375 148 c205 82 374 153 374 157 0 4 6 14 13 22 10
12 14 11 26 -5 7 -11 18 -20 23 -20z m-978 -6 c3 -8 2 -12 -4 -9 -6 3 -10 10
-10 16 0 14 7 11 14 -7z m146 6 c0 -5 -5 -10 -11 -10 -5 0 -7 5 -4 10 3 6 8
10 11 10 2 0 4 -4 4 -10z m-90 -10 c0 -13 -11 -13 -30 0 -12 8 -11 10 8 10 12
0 22 -4 22 -10z m30 -11 c0 -6 -4 -7 -10 -4 -5 3 -10 11 -10 16 0 6 5 7 10 4
6 -3 10 -11 10 -16z m100 5 c0 -8 -5 -12 -10 -9 -6 4 -8 11 -5 16 9 14 15 11
15 -7z m576 -15 c3 -6 1 -16 -5 -22 -9 -9 -14 -8 -21 3 -9 15 -4 30 10 30 5 0
12 -5 16 -11z m662 0 c-2 -6 -8 -10 -13 -10 -5 0 -11 4 -13 10 -2 6 4 11 13
11 9 0 15 -5 13 -11z m-958 -9 c0 -5 -2 -10 -4 -10 -3 0 -8 5 -11 10 -3 6 -1
10 4 10 6 0 11 -4 11 -10z m237 -37 c-3 -3 -11 -2 -17 2 -9 6 -9 10 1 16 14 8
27 -7 16 -18z m863 7 c0 -5 -7 -10 -16 -10 -8 0 -12 5 -9 10 3 6 10 10 16 10
5 0 9 -4 9 -10z m-1495 -10 c3 -5 2 -10 -4 -10 -6 0 -8 -7 -5 -15 4 -10 0 -15
-11 -15 -10 0 -13 -5 -9 -12 4 -6 3 -8 -4 -5 -7 5 -7 16 1 37 12 31 21 37 32
20z m185 -6 c0 -8 -5 -12 -10 -9 -6 4 -8 11 -5 16 9 14 15 11 15 -7z m-245
-14 c3 -5 -1 -10 -9 -10 -9 0 -16 5 -16 10 0 6 4 10 9 10 6 0 13 -4 16 -10z
m1625 0 c12 -7 10 -9 -8 -7 -12 0 -22 5 -22 9 0 11 12 10 30 -2z m-1320 -10
c0 -5 -2 -10 -4 -10 -3 0 -8 5 -11 10 -3 6 -1 10 4 10 6 0 11 -4 11 -10z m910
-4 c0 -3 -4 -8 -10 -11 -5 -3 -10 -1 -10 4 0 6 5 11 10 11 6 0 10 -2 10 -4z
m-92 -17 c-2 -6 -8 -10 -13 -10 -5 0 -11 4 -13 10 -2 6 4 11 13 11 9 0 15 -5
13 -11z m-994 -55 c5 -22 2 -35 -9 -44 -12 -10 -15 -10 -15 3 0 9 -6 20 -12
24 -7 4 -13 15 -13 23 0 15 -7 16 -36 5 -10 -3 -19 0 -22 7 -3 10 6 15 32 16
20 2 38 8 40 13 6 17 28 -13 35 -47z m-138 34 c5 -8 2 -9 -9 -5 -10 4 -17 1
-17 -5 0 -6 -3 -9 -6 -5 -7 7 4 27 16 27 5 0 12 -5 16 -12z m232 -10 c15 -15
15 -28 1 -28 -5 0 -7 5 -4 10 3 6 -1 10 -10 10 -9 0 -13 -4 -10 -10 3 -5 1
-10 -4 -10 -13 0 -13 3 -5 24 7 19 16 20 32 4z m-590 -18 c-5 -22 -35 -24 -40
-3 -4 14 1 18 19 18 15 0 23 -5 21 -15z m1762 0 c0 -5 -2 -10 -4 -10 -3 0 -8
5 -11 10 -3 6 -1 10 4 10 6 0 11 -4 11 -10z m-1447 -7 c-13 -2 -23 -9 -23 -14
0 -5 -4 -9 -10 -9 -5 0 -10 7 -10 15 0 11 10 15 33 14 23 -1 26 -3 10 -6z m68
-11 c6 9 9 9 9 1 0 -6 -4 -14 -9 -17 -14 -9 -41 5 -41 21 0 12 3 12 16 -2 14
-13 19 -14 25 -3z m49 8 c0 -5 -4 -10 -10 -10 -5 0 -10 5 -10 10 0 6 5 10 10
10 6 0 10 -4 10 -10z m94 -6 c3 -8 2 -12 -4 -9 -6 3 -10 10 -10 16 0 14 7 11
14 -7z m1331 -4 c3 -5 -1 -10 -9 -10 -9 0 -16 5 -16 10 0 6 4 10 9 10 6 0 13
-4 16 -10z m-1543 -32 c-9 -9 -15 -9 -24 1 -11 11 -10 13 5 8 10 -4 17 -2 17
5 0 6 3 8 7 5 4 -4 1 -13 -5 -19z m289 9 c-6 -8 -8 -17 -4 -20 3 -4 -1 -7 -10
-7 -19 0 -20 2 -11 24 3 9 13 16 21 16 12 0 13 -3 4 -13z m-416 -7 c4 -6 1
-17 -5 -25 -6 -8 -9 -19 -6 -24 4 -5 1 -13 -5 -16 -11 -7 33 -35 55 -35 6 0
12 -8 12 -18 0 -13 -9 -17 -36 -17 -23 0 -37 5 -37 13 0 6 7 12 14 12 8 0 11
5 8 10 -4 6 -15 8 -25 5 -16 -5 -18 0 -16 35 1 23 -2 44 -8 47 -5 4 -1 10 10
14 27 11 32 10 39 -1z m270 0 c3 -5 -1 -10 -9 -10 -9 0 -16 -5 -16 -11 0 -5
-4 -7 -10 -4 -6 4 -5 11 3 20 14 17 24 18 32 5z m75 -6 c0 -8 -19 -13 -24 -6
-3 5 1 9 9 9 8 0 15 -2 15 -3z m1475 -3 c3 -5 1 -12 -5 -16 -5 -3 -10 1 -10 9
0 18 6 21 15 7z m-2187 -17 c6 4 8 -2 5 -14 -3 -11 -8 -18 -12 -16 -3 1 -14 6
-24 9 -15 6 -16 9 -5 21 8 9 15 10 19 4 4 -6 11 -8 17 -4z m506 -4 c-10 -4
-21 -6 -24 -3 -8 7 24 22 34 16 5 -4 1 -10 -10 -13z m76 16 c0 -3 -4 -8 -10
-11 -5 -3 -10 -1 -10 4 0 6 5 11 10 11 6 0 10 -2 10 -4z m1070 -6 c0 -5 -4
-10 -10 -10 -5 0 -10 5 -10 10 0 6 5 10 10 10 6 0 10 -4 10 -10z m-993 -6 c-3
-3 -12 -4 -19 -1 -8 3 -5 6 6 6 11 1 17 -2 13 -5z m-97 -18 c0 -3 -4 -8 -10
-11 -5 -3 -10 -1 -10 4 0 6 5 11 10 11 6 0 10 -2 10 -4z m90 -26 c0 -5 -9 -6
-19 -3 -12 3 -17 11 -14 19 4 11 9 12 19 3 8 -6 14 -15 14 -19z m-703 3 c18
-16 16 -26 -2 -19 -9 3 -15 0 -15 -9 0 -8 -4 -15 -9 -15 -16 0 -23 20 -12 34
6 7 7 16 3 20 -12 13 21 2 35 -11z m1728 -22 c3 -5 1 -12 -5 -16 -5 -3 -10 1
-10 9 0 18 6 21 15 7z m550 -11 c3 -5 2 -10 -4 -10 -5 0 -13 5 -16 10 -3 6 -2
10 4 10 5 0 13 -4 16 -10z m-1971 -59 c-9 -9 -34 -9 -34 -1 0 5 9 8 20 7 10
-1 17 -3 14 -6z m1956 -5 c0 -3 -4 -8 -10 -11 -5 -3 -10 -1 -10 4 0 6 5 11 10
11 6 0 10 -2 10 -4z m-1940 -23 c-1 -18 -18 -35 -24 -24 -4 6 -4 16 -1 21 7
12 25 13 25 3z m-50 -7 c0 -11 -19 -15 -25 -6 -3 5 1 10 9 10 9 0 16 -2 16 -4z
m156 -47 c10 -32 10 -38 0 -30 -7 6 -16 9 -20 6 -3 -3 -2 0 3 7 13 15 -6 51
-22 41 -7 -4 -6 0 2 10 17 21 22 16 37 -34z m1384 47 c0 -11 -19 -15 -25 -6
-3 5 1 10 9 10 9 0 16 -2 16 -4z m-1697 -40 c19 -19 21 -26 11 -30 -8 -3 -20
6 -29 24 -19 36 -14 38 18 6z m187 -7 c0 -18 -18 -9 -23 12 -4 16 -3 18 9 8 8
-6 14 -15 14 -20z m185 21 c3 -5 1 -10 -4 -10 -6 0 -11 5 -11 10 0 6 2 10 4
10 3 0 8 -4 11 -10z m-251 -56 c-8 -6 -14 -16 -14 -22 0 -5 -9 -8 -19 -5 -16
4 -17 8 -8 18 7 7 14 13 17 13 26 -1 32 3 21 15 -6 8 -8 17 -4 21 4 4 10 -1
14 -11 4 -11 1 -23 -7 -29z m146 1 c-4 -19 -7 -35 -6 -37 0 -2 -4 2 -10 9 -8
9 -13 10 -22 1 -9 -9 -12 -7 -12 9 0 16 5 20 20 16 21 -5 28 11 10 22 -15 9
-2 25 14 19 10 -4 12 -14 6 -39z m940 35 c0 -5 -4 -10 -10 -10 -5 0 -10 5 -10
10 0 6 5 10 10 10 6 0 10 -4 10 -10z m-1400 -30 c0 -5 -5 -10 -11 -10 -5 0 -7
5 -4 10 3 6 8 10 11 10 2 0 4 -4 4 -10z m378 -9 c-7 -11 -16 -17 -21 -14 -4 3
0 11 10 19 24 18 25 17 11 -5z m885 5 c4 -10 1 -13 -8 -9 -8 3 -12 9 -9 14 7
12 11 11 17 -5z m-1023 -32 c0 -4 -7 -4 -15 0 -8 3 -15 0 -15 -7 0 -8 -4 -7
-9 3 -14 21 -3 32 20 20 10 -6 19 -13 19 -16z m-235 6 c3 -5 1 -10 -4 -10 -6
0 -11 5 -11 10 0 6 2 10 4 10 3 0 8 -4 11 -10z m183 -37 c7 -7 19 -10 27 -7 9
4 15 0 15 -10 0 -20 -10 -20 -38 0 -12 8 -26 13 -31 9 -5 -3 -16 8 -24 24
l-15 30 26 -17 c15 -9 33 -22 40 -29z m146 41 c9 -3 16 -13 16 -20 0 -12 -4
-12 -20 -4 -11 6 -20 15 -20 20 0 12 3 12 24 4z m151 -14 c3 -5 1 -10 -4 -10
-6 0 -11 5 -11 10 0 6 2 10 4 10 3 0 8 -4 11 -10z m-470 -31 c0 -8 -7 -14 -15
-14 -8 0 -15 5 -15 10 0 6 -4 16 -8 22 -6 10 -2 11 15 4 13 -4 23 -15 23 -22z
m375 21 c0 -5 -2 -10 -4 -10 -3 0 -8 5 -11 10 -3 6 -1 10 4 10 6 0 11 -4 11
-10z m770 -12 c0 -19 -2 -20 -10 -8 -13 19 -13 30 0 30 6 0 10 -10 10 -22z
m235 12 c3 -5 1 -10 -4 -10 -6 0 -11 5 -11 10 0 6 2 10 4 10 3 0 8 -4 11 -10z
m82 -15 c-15 -16 -19 -13 -11 9 3 9 10 13 15 10 5 -3 3 -11 -4 -19z m-1197
-16 c0 -5 -5 -9 -11 -9 -5 0 -7 5 -3 12 5 7 2 9 -9 5 -11 -4 -14 -2 -10 9 4
11 9 12 19 3 8 -6 14 -15 14 -20z m193 -16 c-3 -7 0 -13 6 -13 6 0 11 -5 11
-11 0 -16 -20 1 -30 25 -4 11 -5 25 -3 30 8 12 22 -15 16 -31z m67 17 c28 -28
25 -37 -10 -38 -16 0 -30 4 -30 9 0 6 6 7 13 3 9 -5 9 -4 0 6 -6 7 -9 19 -6
26 7 18 9 18 33 -6z m-210 -5 c0 6 5 2 11 -8 6 -10 8 -21 5 -24 -9 -9 -36 18
-36 36 0 14 2 14 10 1 5 -8 10 -10 10 -5z m60 0 c0 -9 -6 -12 -15 -9 -8 4 -15
10 -15 15 0 5 7 9 15 9 8 0 15 -7 15 -15z m1035 -23 c-8 -8 -25 10 -19 20 4 6
9 5 15 -3 4 -7 6 -15 4 -17z m715 24 c0 -3 -4 -8 -10 -11 -5 -3 -10 -1 -10 4
0 6 5 11 10 11 6 0 10 -2 10 -4z m-1706 -22 c7 -19 -1 -54 -13 -54 -4 0 -8 16
-9 35 -1 36 11 47 22 19z m836 -5 c0 -5 -4 -9 -10 -9 -5 0 -10 7 -10 16 0 8 5
12 10 9 6 -3 10 -10 10 -16z m210 11 c0 -5 -5 -10 -11 -10 -5 0 -7 5 -4 10 3
6 8 10 11 10 2 0 4 -4 4 -10z m740 -11 c0 -18 -2 -20 -15 -9 -13 11 -13 15 -3
21 18 12 18 12 18 -12z m-2236 -4 c-7 -16 -24 -21 -24 -6 0 8 7 13 27 20 1 1
0 -6 -3 -14z m148 -7 c17 -17 18 -20 4 -15 -10 4 -21 7 -26 7 -4 0 -10 7 -14
15 -8 22 11 18 36 -7z m1408 12 c0 -5 -5 -10 -11 -10 -5 0 -7 5 -4 10 3 6 8
10 11 10 2 0 4 -4 4 -10z m-1470 -26 c0 -10 -54 3 -58 14 -3 9 4 9 27 1 17 -6
31 -13 31 -15z m190 10 c0 -8 -4 -13 -9 -10 -5 4 -11 0 -14 -6 -2 -7 -8 -10
-12 -5 -5 4 0 14 11 22 24 18 24 18 24 -1z m-85 -3 c3 -5 1 -12 -5 -16 -5 -3
-10 1 -10 9 0 18 6 21 15 7z m215 -17 c0 -8 -5 -12 -10 -9 -6 4 -8 11 -5 16 9
14 15 11 15 -7z m91 -29 c7 -6 13 -5 19 5 8 13 10 12 10 -2 0 -10 5 -18 10
-18 6 0 10 -6 10 -13 0 -7 -8 -13 -19 -13 -11 0 -17 5 -14 13 3 7 0 13 -6 13
-6 0 -11 -4 -11 -9 0 -4 -13 -8 -29 -7 -18 1 -27 5 -24 13 3 7 10 11 16 10 6
-1 12 5 13 13 3 37 6 45 11 25 3 -11 9 -24 14 -30z m1419 23 c0 -19 -2 -20
-10 -8 -13 19 -13 30 0 30 6 0 10 -10 10 -22z m-1311 -2 c10 -11 8 -16 -9 -21
-26 -8 -35 -1 -27 20 8 19 21 19 36 1z m-362 -9 c7 0 10 -4 7 -9 -3 -4 -15 -3
-27 3 -30 16 -37 24 -12 14 11 -4 25 -8 32 -8z m923 -11 c0 -2 -9 -2 -20 1
-11 3 -20 9 -20 15 0 5 9 4 20 -2 11 -6 20 -12 20 -14z m290 -31 c0 -12 -29
-3 -34 11 -11 29 -6 34 14 14 11 -11 20 -22 20 -25z m53 30 c-3 -9 -8 -14 -10
-11 -3 3 -2 9 2 15 9 16 15 13 8 -4z m331 7 c3 -5 -1 -9 -9 -9 -8 0 -12 4 -9
9 3 4 7 8 9 8 2 0 6 -4 9 -8z m-1486 -22 c-14 -22 -24 -19 -15 5 4 8 11 15 17
15 6 0 6 -7 -2 -20z m62 10 c0 -5 -5 -10 -11 -10 -5 0 -7 5 -4 10 3 6 8 10 11
10 2 0 4 -4 4 -10z m-390 -10 c0 -5 -10 -10 -22 -10 -19 0 -20 2 -8 10 19 13
30 13 30 0z m114 2 c3 -5 -1 -9 -9 -9 -8 0 -15 4 -15 9 0 4 4 8 9 8 6 0 12 -4
15 -8z m36 -13 c0 -6 -4 -7 -10 -4 -5 3 -10 11 -10 16 0 6 5 7 10 4 6 -3 10
-11 10 -16z m136 -4 c-1 -23 -2 -24 -13 -8 -17 22 -16 33 1 33 9 0 13 -10 12
-25z m1209 -15 c-4 -20 -11 -28 -16 -23 -6 6 -5 20 2 37 16 34 23 26 14 -14z
m-1471 14 c3 -8 2 -12 -4 -9 -6 3 -10 10 -10 16 0 14 7 11 14 -7z m1436 2 c0
-3 -4 -8 -10 -11 -5 -3 -10 -1 -10 4 0 6 5 11 10 11 6 0 10 -2 10 -4z m496
-18 l19 -21 -27 18 c-29 18 -34 25 -20 25 5 0 17 -10 28 -22z m-1966 2 c0 -5
-4 -10 -10 -10 -5 0 -10 5 -10 10 0 6 5 10 10 10 6 0 10 -4 10 -10z m80 6 c0
-3 -4 -8 -10 -11 -5 -3 -10 -1 -10 4 0 6 5 11 10 11 6 0 10 -2 10 -4z m948
-15 c-7 -11 -16 -18 -20 -15 -4 3 -2 11 5 19 18 21 29 18 15 -4z m802 9 c0 -5
-4 -10 -10 -10 -5 0 -10 5 -10 10 0 6 5 10 10 10 6 0 10 -4 10 -10z m-1630
-15 c10 -12 10 -15 -4 -15 -9 0 -16 7 -16 15 0 8 2 15 4 15 2 0 9 -7 16 -15z
m1200 0 c0 -8 -4 -15 -10 -15 -5 0 -7 7 -4 15 4 8 8 15 10 15 2 0 4 -7 4 -15z
m-1380 -11 c0 -8 -5 -12 -10 -9 -6 4 -8 11 -5 16 9 14 15 11 15 -7z m474 -1
c-17 -13 -34 -9 -34 7 0 6 12 9 26 8 23 -2 23 -4 8 -15z m63 -8 c-19 -19 -34
-19 -34 -1 0 8 6 12 13 9 6 -2 15 1 19 7 4 6 9 9 12 6 3 -3 -2 -12 -10 -21z
m548 15 c3 -5 1 -10 -4 -10 -6 0 -11 5 -11 10 0 6 2 10 4 10 3 0 8 -4 11 -10z
m967 -1 c2 -2 1 -3 -1 -2 -2 1 -10 -5 -19 -13 -11 -11 -18 -12 -26 -4 -8 8 -7
13 3 19 14 9 38 9 43 0z m-1658 -6 c-5 -5 -12 -12 -16 -18 -4 -6 -8 -2 -8 8 0
9 7 17 17 17 9 0 12 -3 7 -7z m1436 -14 c0 -5 -4 -9 -10 -9 -5 0 -10 7 -10 16
0 8 5 12 10 9 6 -3 10 -10 10 -16z m310 11 c0 -5 -4 -10 -10 -10 -5 0 -10 5
-10 10 0 6 5 10 10 10 6 0 10 -4 10 -10z m-210 -4 c0 -3 -4 -8 -10 -11 -5 -3
-10 -1 -10 4 0 6 5 11 10 11 6 0 10 -2 10 -4z m360 0 c0 -11 -19 -15 -25 -6
-3 5 1 10 9 10 9 0 16 -2 16 -4z m-1050 -11 c0 -2 -9 -9 -20 -15 -16 -9 -20
-8 -20 5 0 8 9 15 20 15 11 0 20 -2 20 -5z m-1080 -15 c0 -5 -9 -10 -21 -10
-11 0 -17 5 -14 10 3 6 13 10 21 10 8 0 14 -4 14 -10z m290 0 c0 -5 -7 -7 -15
-4 -8 4 -15 8 -15 10 0 2 7 4 15 4 8 0 15 -4 15 -10z m586 -17 c-10 -10 -19 5
-10 18 6 11 8 11 12 0 2 -7 1 -15 -2 -18z m39 17 c3 -5 -1 -10 -10 -10 -9 0
-13 5 -10 10 3 6 8 10 10 10 2 0 7 -4 10 -10z m410 0 c3 -5 1 -10 -4 -10 -6 0
-11 5 -11 10 0 6 2 10 4 10 3 0 8 -4 11 -10z m-982 -15 c-3 -9 -8 -14 -10 -11
-3 3 -2 9 2 15 9 16 15 13 8 -4z m779 -10 c5 -22 3 -25 -16 -19 -29 9 -31 11
-16 29 18 21 27 19 32 -10z m78 15 c0 -5 -4 -10 -10 -10 -5 0 -10 5 -10 10 0
6 5 10 10 10 6 0 10 -4 10 -10z m93 -7 c4 -2 4 -9 1 -15 -4 -6 -10 -5 -15 3
-7 11 -9 11 -9 1 0 -10 -5 -10 -20 -2 -30 16 -25 31 8 24 15 -4 30 -9 35 -11z
m447 -3 c0 -5 -7 -7 -15 -4 -8 4 -12 10 -9 15 6 11 24 2 24 -11z m540 -1 c0
-5 -8 -9 -17 -8 -11 0 -13 3 -5 6 6 2 9 10 6 15 -4 7 -2 8 4 4 7 -4 12 -11 12
-17z m-2410 7 c0 -3 -4 -8 -10 -11 -5 -3 -10 -1 -10 4 0 6 5 11 10 11 6 0 10
-2 10 -4z m302 -3 c-6 -2 -10 -8 -8 -12 6 -8 -22 -12 -42 -5 -24 7 -1 24 31
23 18 0 26 -3 19 -6z m809 -23 c4 -8 4 -19 2 -23 -7 -11 -33 12 -33 29 0 18
23 13 31 -6z m29 16 c0 -3 -4 -8 -10 -11 -5 -3 -10 -1 -10 4 0 6 5 11 10 11 6
0 10 -2 10 -4z m60 -17 c0 -5 -7 -9 -15 -9 -9 0 -12 6 -9 15 6 15 24 11 24 -6z
m97 15 c-3 -4 4 -15 16 -24 24 -20 16 -40 -10 -24 -19 12 -28 54 -11 54 6 0 9
-3 5 -6z m538 -3 c3 -5 1 -12 -5 -16 -5 -3 -10 1 -10 9 0 18 6 21 15 7z m115
-1 c0 -5 -2 -10 -4 -10 -3 0 -8 5 -11 10 -3 6 -1 10 4 10 6 0 11 -4 11 -10z
m45 -10 c-10 -11 -21 -18 -23 -15 -3 3 3 12 14 20 27 20 30 18 9 -5z m-1791 2
c3 -5 -1 -9 -9 -9 -8 0 -12 4 -9 9 3 4 7 8 9 8 2 0 6 -4 9 -8z m186 -14 c0
-10 -4 -18 -9 -18 -5 0 -11 8 -13 18 -3 11 0 19 8 19 8 0 14 -9 14 -19z m35
12 c-3 -5 -12 -10 -18 -10 -7 0 -6 4 3 10 19 12 23 12 15 0z m1465 2 c0 -13
-12 -22 -22 -16 -10 6 -1 24 13 24 5 0 9 -4 9 -8z m-405 -19 c-2 -10 -4 -20
-4 -22 -1 -2 -8 2 -16 9 -10 9 -15 9 -15 1 0 -6 -9 -11 -20 -11 -28 0 -25 20
3 21 12 1 25 1 30 0 4 0 7 4 7 9 0 6 4 10 9 10 5 0 8 -8 6 -17z m-1475 -3 c0
-5 -2 -10 -4 -10 -3 0 -8 5 -11 10 -3 6 -1 10 4 10 6 0 11 -4 11 -10z m1368
-2 c-2 -5 -8 -9 -13 -9 -5 0 -11 4 -13 9 -1 5 4 9 13 9 9 0 14 -4 13 -9z m488
1 c3 -6 1 -16 -5 -22 -8 -8 -11 -8 -11 0 0 6 -10 9 -22 6 -23 -5 -23 -5 -3 10
24 19 32 21 41 6z m274 -10 c0 -12 -4 -18 -11 -13 -6 3 -15 0 -20 -7 -4 -7
-11 -10 -15 -6 -8 7 24 47 38 47 4 0 8 -9 8 -21z m180 11 c0 -5 -5 -10 -11
-10 -5 0 -7 5 -4 10 3 6 8 10 11 10 2 0 4 -4 4 -10z m120 0 c0 -5 -5 -10 -11
-10 -5 0 -7 5 -4 10 3 6 8 10 11 10 2 0 4 -4 4 -10z m-80 -9 c0 -6 -4 -13 -10
-16 -5 -3 -10 1 -10 9 0 9 5 16 10 16 6 0 10 -4 10 -9z m30 -12 c0 -6 -4 -7
-10 -4 -5 3 -10 11 -10 16 0 6 5 7 10 4 6 -3 10 -11 10 -16z m-496 -2 c-5 -15
37 -18 47 -4 3 5 9 2 12 -6 4 -10 -2 -16 -19 -20 -14 -2 -24 1 -24 7 0 6 -4 5
-9 -2 -7 -11 -10 -10 -15 3 -3 9 -4 21 0 26 8 14 14 11 8 -4z m-1974 -18 c0
-14 -17 -10 -23 5 -4 10 -1 13 9 9 7 -3 14 -9 14 -14z m1390 -20 c0 -15 -20
-10 -26 6 -4 8 -13 15 -21 15 -8 0 -11 4 -8 10 7 11 55 -16 55 -31z m-837 -1
c-2 -5 -9 -8 -14 -8 -6 0 -7 5 -4 10 3 6 1 10 -5 10 -6 0 -8 4 -5 10 4 6 11 5
19 -3 8 -6 12 -15 9 -19z m80 6 c-3 -8 -8 -13 -10 -10 -3 3 -16 1 -29 -4 -24
-9 -24 -9 -9 14 17 26 58 26 48 0z m404 4 c-3 -8 -6 -5 -6 6 -1 11 2 17 5 13
3 -3 4 -12 1 -19z m466 7 c-3 -9 -8 -14 -10 -11 -3 3 -2 9 2 15 9 16 15 13 8
-4z m612 -5 c7 -12 -2 -12 -30 0 -19 8 -19 9 2 9 12 1 25 -3 28 -9z m362 -12
c-3 -8 -6 -5 -6 6 -1 11 2 17 5 13 3 -3 4 -12 1 -19z m-1372 2 c-3 -5 -11 -10
-16 -10 -6 0 -7 5 -4 10 3 6 11 10 16 10 6 0 7 -4 4 -10z m1085 0 c0 -5 0 -13
0 -17 0 -5 -5 -8 -10 -8 -6 0 -15 -7 -21 -15 -9 -13 -10 -13 -5 0 3 8 9 23 12
33 7 18 24 24 24 7z m-980 -10 c0 -5 -5 -10 -11 -10 -5 0 -7 5 -4 10 3 6 8 10
11 10 2 0 4 -4 4 -10z m813 -16 c-7 -18 -21 -18 -39 0 -12 13 -12 15 4 18 26
6 41 -2 35 -18z m-1243 12 c0 -2 -7 -7 -16 -10 -8 -3 -12 -2 -9 4 6 10 25 14
25 6z m528 -7 c-2 -6 -8 -10 -13 -10 -5 0 -11 4 -13 10 -2 6 4 11 13 11 9 0
15 -5 13 -11z m792 1 c0 -5 -2 -10 -4 -10 -3 0 -8 5 -11 10 -3 6 -1 10 4 10 6
0 11 -4 11 -10z m30 -21 c0 -6 -4 -7 -10 -4 -5 3 -10 11 -10 16 0 6 5 7 10 4
6 -3 10 -11 10 -16z m-42 -15 c2 -1 -8 -1 -21 0 -15 0 -23 6 -20 14 4 10 9 10
22 0 9 -7 17 -13 19 -14z m-1733 6 c3 -5 -1 -10 -10 -10 -9 0 -13 5 -10 10 3
6 8 10 10 10 2 0 7 -4 10 -10z m118 -15 c-6 -18 -29 -20 -39 -3 -4 7 -3 8 5 4
6 -4 14 0 17 8 3 9 10 14 15 11 4 -3 6 -12 2 -20z m194 19 c-3 -3 -12 -4 -19
-1 -8 3 -5 6 6 6 11 1 17 -2 13 -5z m-254 -37 c-2 -4 -14 -2 -25 4 -15 8 -17
13 -8 19 14 9 41 -10 33 -23z m131 24 c3 -5 -1 -11 -9 -15 -9 -3 -15 0 -15 9
0 16 16 20 24 6z m516 -4 c0 -7 -9 -13 -21 -14 -17 -2 -18 1 -9 13 15 17 30
18 30 1z m160 -17 c9 -16 8 -18 -5 -14 -8 4 -15 12 -15 20 0 20 7 17 20 -6z
m1224 5 c-4 -8 -10 -12 -15 -9 -11 6 -2 24 11 24 5 0 7 -7 4 -15z m-189 -14
c-3 -6 -11 -11 -16 -11 -5 0 -4 6 3 14 14 16 24 13 13 -3z m-185 -1 c0 -5 -4
-10 -10 -10 -5 0 -10 5 -10 10 0 6 5 10 10 10 6 0 10 -4 10 -10z m340 -21 c0
-18 -2 -19 -15 -9 -15 12 -12 30 6 30 5 0 9 -10 9 -21z m-237 -25 c-3 -8 -12
-14 -20 -14 -8 0 -11 -5 -7 -12 4 -7 3 -8 -4 -4 -6 4 -9 13 -7 21 15 48 15 48
30 35 7 -6 11 -18 8 -26z m112 17 c-3 -6 -11 -11 -17 -11 -6 0 -6 6 2 15 14
17 26 13 15 -4z m-1191 -16 c-4 -8 -11 -12 -16 -9 -6 4 -5 10 3 15 19 12 19
11 13 -6z m59 -10 c-3 -9 -8 -14 -10 -11 -3 3 -2 9 2 15 9 16 15 13 8 -4z
m1075 -5 c7 -11 18 -17 27 -14 11 5 13 2 8 -12 -4 -11 -3 -15 5 -10 6 3 13 2
17 -4 3 -5 1 -10 -5 -10 -6 0 -8 -5 -4 -12 5 -7 3 -8 -7 -2 -8 5 -22 7 -32 5
-12 -1 -20 5 -24 18 -3 12 -9 21 -13 21 -5 0 -6 9 -3 20 7 25 15 25 31 0z
m112 5 c-7 -8 -16 -12 -21 -9 -5 3 -9 1 -9 -4 0 -13 -24 -10 -39 5 -10 11 -8
13 12 8 14 -4 28 -2 31 4 4 6 14 11 23 11 13 0 13 -3 3 -15z m-291 -7 c-3 -28
2 -49 10 -43 5 3 13 0 17 -6 5 -9 -1 -10 -21 -5 -20 5 -26 4 -23 -6 3 -7 -1
-19 -8 -26 -12 -10 -14 -10 -14 3 0 8 -2 15 -4 15 -2 0 -11 3 -20 6 -12 5 -16
-1 -16 -24 0 -29 -18 -46 -36 -34 -16 12 -9 55 11 66 10 6 27 20 36 31 16 19
18 19 24 3 11 -28 36 -22 31 7 -3 14 0 25 5 25 5 0 9 -6 8 -12z m315 -13 c-4
-8 -8 -15 -10 -15 -2 0 -4 7 -4 15 0 8 4 15 10 15 5 0 7 -7 4 -15z m-2027 -17
c-3 -8 -6 -5 -6 6 -1 11 2 17 5 13 3 -3 4 -12 1 -19z m891 10 c-3 -7 -13 -15
-23 -16 -15 -4 -16 -2 -4 12 17 19 32 21 27 4z m1262 8 c0 -2 -7 -7 -16 -10
-8 -3 -12 -2 -9 4 6 10 25 14 25 6z m-2452 -34 c2 -7 -3 -12 -12 -12 -9 0 -16
7 -16 16 0 17 22 14 28 -4z m192 -2 c0 -5 -4 -10 -10 -10 -5 0 -10 5 -10 10 0
6 5 10 10 10 6 0 10 -4 10 -10z m182 -22 c-7 -7 -12 -8 -12 -2 0 14 12 26 19
19 2 -3 -1 -11 -7 -17z m-332 -8 c0 -12 -7 -20 -17 -20 -15 0 -16 2 -3 10 8 5
11 10 7 10 -5 0 -5 5 -2 10 10 16 15 12 15 -10z m67 0 c1 -11 -4 -20 -13 -20
-14 0 -19 21 -7 33 11 12 19 7 20 -13z m63 10 c8 -5 11 -10 5 -10 -5 0 -17 5
-25 10 -8 5 -10 10 -5 10 6 0 17 -5 25 -10z m2130 -1 c0 -11 -27 -12 -34 -1
-2 4 4 9 15 9 10 1 19 -2 19 -8z m-2090 -9 c0 -5 -2 -10 -4 -10 -3 0 -8 5 -11
10 -3 6 -1 10 4 10 6 0 11 -4 11 -10z m2155 -38 c-6 -8 -35 12 -35 24 0 11 4
10 18 -3 10 -10 18 -19 17 -21z m-141 13 c-4 -8 -10 -15 -15 -15 -5 0 -9 -9
-9 -21 0 -11 -5 -17 -10 -14 -6 3 -12 0 -15 -7 -6 -14 -80 -17 -93 -3 -4 5 -2
5 5 1 7 -3 14 2 18 14 6 19 22 25 54 20 7 -1 22 8 33 19 22 24 40 28 32 6z
m-2137 -11 c-3 -3 -12 -4 -19 -1 -8 3 -5 6 6 6 11 1 17 -2 13 -5z m1933 -9 c0
-8 -4 -15 -10 -15 -5 0 -7 7 -4 15 4 8 8 15 10 15 2 0 4 -7 4 -15z m374 0 c-4
-8 -10 -15 -14 -15 -4 0 -7 -12 -7 -26 0 -29 -23 -50 -35 -31 -3 6 -4 15 -1
20 3 5 -1 13 -8 18 -11 7 -10 9 5 9 11 0 16 3 13 7 -4 3 3 12 16 19 30 17 37
17 31 -1z m-2164 -5 c0 -5 -4 -10 -10 -10 -5 0 -10 5 -10 10 0 6 5 10 10 10 6
0 10 -4 10 -10z m840 -10 c0 -5 -5 -10 -11 -10 -5 0 -7 5 -4 10 3 6 8 10 11
10 2 0 4 -4 4 -10z m1025 0 c3 -5 1 -10 -4 -10 -6 0 -11 5 -11 10 0 6 2 10 4
10 3 0 8 -4 11 -10z m-1788 -25 c0 -8 -7 -15 -15 -15 -12 0 -12 3 -2 15 7 8
13 15 15 15 1 0 2 -7 2 -15z m719 -16 c1 -12 -5 -15 -22 -11 -20 4 -22 7 -13
19 14 17 31 13 35 -8z m1177 -6 c-4 -11 -3 -14 6 -9 9 6 10 1 5 -18 -5 -21 -2
-28 17 -35 13 -5 18 -10 10 -10 -11 -1 -11 -5 3 -20 17 -18 13 -51 -6 -51 -6
0 -8 6 -5 13 8 21 -11 57 -27 51 -9 -3 -14 -11 -13 -17 1 -8 -14 -11 -45 -10
-39 1 -47 -1 -53 -20 l-6 -22 -9 23 c-6 14 -18 22 -35 22 -14 0 -25 5 -25 11
0 5 -4 7 -10 4 -13 -8 -13 1 0 26 14 26 44 24 59 -3 6 -13 9 -15 7 -5 -4 10 0
17 9 17 8 0 15 -6 15 -12 0 -9 3 -9 8 -2 4 6 14 13 23 16 13 5 16 2 12 -12 -5
-17 -2 -18 25 -8 29 11 29 13 15 35 -15 22 -14 25 3 38 24 18 25 18 17 -2z
m-1033 -14 c0 -5 -5 -8 -11 -6 -6 1 -13 -10 -16 -25 -3 -23 -1 -27 14 -21 10
3 15 3 12 -1 -4 -4 -23 -9 -43 -11 -26 -2 -36 1 -36 11 0 8 7 14 15 14 9 0 12
6 8 17 -4 11 -3 14 5 9 6 -4 17 2 24 13 12 19 28 19 28 0z m-1050 -5 c0 -8 -5
-12 -10 -9 -6 4 -8 11 -5 16 9 14 15 11 15 -7z m1615 -34 c-3 -6 -1 -10 5 -10
6 0 4 -10 -5 -24 -14 -21 -14 -25 0 -39 21 -22 19 -30 -6 -17 -16 9 -19 17
-14 40 3 16 7 43 7 60 1 25 3 28 10 16 5 -9 6 -21 3 -26z m638 9 c-4 -15 -8
-17 -14 -8 -6 11 4 28 18 29 0 0 -1 -9 -4 -21z m-36 -5 c-3 -3 -12 -4 -19 -1
-8 3 -5 6 6 6 11 1 17 -2 13 -5z m-2177 -34 c0 -5 -5 -10 -11 -10 -5 0 -7 5
-4 10 3 6 8 10 11 10 2 0 4 -4 4 -10z m901 -1 c-14 -6 -28 -6 -33 -1 -5 5 5 9
24 10 31 0 31 -1 9 -9z m1265 -14 c-1 -26 -10 -32 -21 -15 -5 7 11 37 21 40 1
0 1 -11 0 -25z m-1118 -16 c-17 -10 -28 -2 -21 17 4 11 8 12 20 3 11 -10 11
-14 1 -20z m-105 1 c3 -11 1 -20 -4 -20 -15 0 -10 -38 7 -44 11 -4 14 -1 9 13
-3 11 0 21 8 24 10 4 14 -3 14 -24 0 -33 -23 -46 -46 -25 -17 15 -61 5 -61
-14 0 -5 -4 -10 -9 -10 -20 0 -3 35 18 38 15 2 21 9 17 18 -3 8 -1 14 4 14 6
0 10 7 10 16 0 9 5 12 13 8 8 -5 8 -2 -2 9 -11 15 -11 17 2 17 8 0 17 -9 20
-20z m57 10 c0 -5 -4 -10 -10 -10 -5 0 -10 5 -10 10 0 6 5 10 10 10 6 0 10 -4
10 -10z m1130 0 c0 -5 -2 -10 -4 -10 -3 0 -8 5 -11 10 -3 6 -1 10 4 10 6 0 11
-4 11 -10z m-2170 -20 c0 -5 -4 -10 -10 -10 -5 0 -10 5 -10 10 0 6 5 10 10 10
6 0 10 -4 10 -10z m2181 -19 c-6 -4 -12 -19 -13 -34 -2 -20 -8 -27 -23 -26
-11 0 -14 3 -7 6 6 2 9 9 6 14 -3 6 0 16 6 24 10 12 10 15 -1 16 -8 0 -5 4 6
8 22 9 43 2 26 -8z m-229 -35 c-9 -21 -8 -27 6 -35 9 -6 12 -11 5 -11 -11 0
-43 26 -43 35 0 2 5 16 12 30 8 17 15 22 21 16 7 -7 7 -19 -1 -35z m-1866 -3
c-10 -10 -19 5 -10 18 6 11 8 11 12 0 2 -7 1 -15 -2 -18z m54 17 c0 -5 -4 -10
-10 -10 -5 0 -10 5 -10 10 0 6 5 10 10 10 6 0 10 -4 10 -10z m1898 -32 c5 15
38 16 47 2 10 -16 25 -1 18 17 -4 10 -2 14 5 10 19 -13 26 -69 9 -82 -8 -6
-17 -21 -19 -35 -2 -17 -10 -24 -30 -24 -14 -1 -24 2 -22 6 3 4 0 16 -5 25 -9
16 -10 15 -11 -5 0 -27 -24 -56 -42 -50 -6 2 -13 14 -15 26 -2 17 2 22 18 22
16 0 19 4 14 19 -4 13 0 23 12 30 16 9 16 10 2 11 -11 0 -18 11 -21 30 l-5 30
21 -22 c12 -13 21 -17 24 -10z m-963 5 c-2 -27 -18 -31 -20 -5 -1 12 4 22 10
22 6 0 11 -8 10 -17z m915 -4 c0 -6 -4 -7 -10 -4 -5 3 -10 11 -10 16 0 6 5 7
10 4 6 -3 10 -11 10 -16z m-1725 -7 c-3 -3 -11 0 -18 7 -9 10 -8 11 6 5 10 -3
15 -9 12 -12z m720 -13 c4 -6 14 -8 22 -5 8 4 11 1 8 -5 -4 -6 -13 -8 -21 -5
-10 4 -14 -3 -15 -22 0 -24 -1 -25 -8 -7 -5 11 -7 23 -4 28 2 4 -1 7 -7 7 -6
0 -8 5 -5 10 8 13 22 13 30 -1z m137 -31 c-6 -6 -9 0 -9 18 0 23 1 24 9 10 7
-12 7 -21 0 -28z m483 22 c3 -5 1 -10 -4 -10 -6 0 -11 5 -11 10 0 6 2 10 4 10
3 0 8 -4 11 -10z m73 -4 c-7 -8 -16 -12 -21 -9 -11 7 2 23 19 23 12 0 12 -2 2
-14z m-1468 -6 c0 -5 -7 -7 -15 -4 -8 4 -15 8 -15 10 0 2 7 4 15 4 8 0 15 -4
15 -10z m885 0 c3 -5 1 -10 -4 -10 -6 0 -11 5 -11 10 0 6 2 10 4 10 3 0 8 -4
11 -10z m300 0 c3 -5 1 -10 -4 -10 -6 0 -11 5 -11 10 0 6 2 10 4 10 3 0 8 -4
11 -10z m588 -5 c-3 -9 -8 -14 -10 -11 -3 3 -2 9 2 15 9 16 15 13 8 -4z
m-1935 -23 c5 -17 -13 -15 -27 2 -10 12 -9 14 5 12 10 -2 20 -8 22 -14z m985
-4 c4 -12 4 -24 2 -27 -3 -2 -5 2 -5 9 0 9 -5 7 -16 -6 -8 -10 -13 -13 -9 -6
3 6 1 12 -6 12 -8 0 -9 3 0 13 6 8 8 17 4 20 -3 4 1 7 9 7 9 0 18 -10 21 -22z
m330 2 c-4 -4 -19 -11 -33 -15 l-25 -7 24 21 c21 18 55 20 34 1z m-1083 0 c0
-5 -4 -10 -10 -10 -5 0 -10 5 -10 10 0 6 5 10 10 10 6 0 10 -4 10 -10z m674 1
c3 -5 -1 -11 -9 -14 -9 -4 -12 -1 -8 9 6 16 10 17 17 5z m-824 -5 c0 -3 -4 -8
-10 -11 -5 -3 -10 -1 -10 4 0 6 5 11 10 11 6 0 10 -2 10 -4z m687 -12 c-3 -3
-12 -4 -19 -1 -8 3 -5 6 6 6 11 1 17 -2 13 -5z m603 -28 c-4 -4 -6 -14 -4 -21
3 -7 -5 -15 -16 -18 -18 -5 -21 -2 -17 14 3 12 0 19 -9 19 -8 0 -14 5 -14 11
0 5 4 8 9 5 4 -3 17 1 27 8 14 11 21 11 26 3 4 -7 3 -16 -2 -21z m-630 -11
c-11 -13 10 -37 43 -48 21 -8 22 -30 2 -47 -8 -7 -12 -17 -8 -23 3 -6 1 -7 -6
-3 -6 4 -9 12 -6 17 4 5 1 9 -4 9 -6 0 -11 7 -11 15 0 8 -8 15 -17 16 -11 0
-13 3 -5 6 6 2 12 12 12 21 0 14 -2 15 -10 2 -14 -22 -23 -5 -10 20 6 12 9 29
6 37 -5 13 -4 14 9 3 11 -9 12 -16 5 -25z m733 14 c4 -16 3 -18 -9 -8 -16 13
-19 29 -5 29 5 0 11 -9 14 -21z m-569 -5 c3 -9 3 -20 0 -25 -8 -13 -34 9 -34
27 0 19 26 18 34 -2z m-544 -14 c0 -5 -2 -10 -4 -10 -3 0 -8 5 -11 10 -3 6 -1
10 4 10 6 0 11 -4 11 -10z m630 6 c0 -3 -4 -8 -10 -11 -5 -3 -10 -1 -10 4 0 6
5 11 10 11 6 0 10 -2 10 -4z m110 0 c0 -3 -4 -8 -10 -11 -5 -3 -10 -1 -10 4 0
6 5 11 10 11 6 0 10 -2 10 -4z m-946 -20 c-3 -8 -1 -17 5 -21 6 -3 11 -13 11
-21 0 -14 -2 -14 -15 0 -16 15 -20 38 -8 49 10 11 13 8 7 -7z m881 4 c3 -5 1
-10 -4 -10 -6 0 -11 5 -11 10 0 6 2 10 4 10 3 0 8 -4 11 -10z m165 0 c0 -5 -4
-10 -10 -10 -5 0 -10 5 -10 10 0 6 5 10 10 10 6 0 10 -4 10 -10z m230 -37 c0
-21 -3 -23 -14 -14 -7 6 -13 23 -13 36 0 20 2 23 13 14 8 -6 14 -23 14 -36z
m35 38 c3 -5 1 -12 -5 -16 -5 -3 -10 1 -10 9 0 18 6 21 15 7z m-1355 -11 c0
-5 -5 -10 -11 -10 -5 0 -7 5 -4 10 3 6 8 10 11 10 2 0 4 -4 4 -10z m590 0 c0
-5 -4 -10 -10 -10 -5 0 -10 5 -10 10 0 6 5 10 10 10 6 0 10 -4 10 -10z m95 0
c-3 -5 -11 -10 -16 -10 -6 0 -7 5 -4 10 3 6 11 10 16 10 6 0 7 -4 4 -10z m705
-4 c0 -8 -4 -17 -9 -21 -6 -3 -9 4 -8 15 1 23 17 28 17 6z m-220 -11 c0 -18
-34 -53 -46 -48 -21 8 -17 33 6 33 11 0 20 5 20 10 0 6 5 10 10 10 6 0 10 -2
10 -5z m357 -15 c-1 -22 -17 -28 -17 -7 0 12 9 27 16 27 2 0 2 -9 1 -20z
m-1113 -14 c-3 -8 -1 -23 4 -33 5 -10 7 -24 5 -31 -8 -22 -33 7 -33 38 0 24 5
31 27 39 1 1 0 -5 -3 -13z m596 10 c0 -2 -7 -7 -16 -10 -8 -3 -12 -2 -9 4 6
10 25 14 25 6z m475 -6 c3 -5 2 -10 -4 -10 -5 0 -13 5 -16 10 -3 6 -2 10 4 10
5 0 13 -4 16 -10z m204 -13 c0 -9 -2 -9 -5 0 -3 7 -13 9 -22 6 -14 -4 -14 -3
-2 5 16 12 30 7 29 -11z m63 8 c3 3 13 -9 21 -27 9 -18 17 -27 17 -20 0 6 5
12 10 12 7 0 7 -7 0 -21 -9 -16 -14 -18 -25 -9 -8 7 -13 15 -12 18 1 4 -2 8
-8 9 -5 1 -9 -9 -9 -23 1 -13 -3 -21 -7 -18 -5 3 -9 18 -9 35 0 20 -5 29 -16
29 -14 0 -14 3 -4 15 9 11 16 12 25 5 6 -5 14 -7 17 -5z m-1416 -33 c-4 -3
-12 0 -19 7 -9 9 -9 14 3 21 11 7 16 5 18 -6 2 -9 1 -18 -2 -22z m529 29 c3
-5 1 -12 -5 -16 -5 -3 -10 1 -10 9 0 18 6 21 15 7z m515 -1 c0 -5 5 -10 11
-10 23 0 38 -29 29 -57 -1 -5 -2 -12 -1 -16 1 -5 -3 -6 -9 -2 -8 5 -8 11 0 20
12 14 -11 28 -33 19 -7 -2 -18 7 -25 23 -8 20 -11 22 -8 6 3 -15 0 -20 -10
-16 -17 6 -18 15 -2 31 15 15 48 16 48 2z m-113 -25 c-7 -16 -37 -21 -37 -5 0
10 32 31 39 25 2 -2 1 -11 -2 -20z m-687 5 c0 -5 -4 -10 -10 -10 -5 0 -10 5
-10 10 0 6 5 10 10 10 6 0 10 -4 10 -10z m250 -5 c-13 -16 4 -37 23 -29 13 5
16 2 11 -10 -5 -12 -10 -13 -25 -5 -10 5 -19 14 -19 19 0 6 -7 10 -15 10 -8 0
-15 6 -15 14 0 8 9 13 24 12 16 0 21 -5 16 -11z m-810 -5 c0 -5 -5 -10 -11
-10 -5 0 -7 5 -4 10 3 6 8 10 11 10 2 0 4 -4 4 -10z m110 0 c0 -5 -4 -10 -9
-10 -6 0 -13 5 -16 10 -3 6 1 10 9 10 9 0 16 -4 16 -10z m106 -11 c-29 -23
-40 -21 -30 5 3 9 17 16 31 16 l26 0 -27 -21z m1228 6 c-4 -8 -10 -15 -15 -15
-4 0 -6 7 -3 15 4 8 10 15 15 15 4 0 6 -7 3 -15z m-905 -8 c8 -11 6 -18 -10
-33 -22 -19 -22 -19 -8 4 12 20 12 24 -1 32 -8 5 -10 10 -4 10 6 0 17 -6 23
-13z m71 6 c0 -5 -11 -9 -25 -9 -14 -1 -22 2 -19 7 6 11 44 12 44 2z m116 -12
c0 -11 -5 -17 -13 -14 -14 6 -17 16 -6 26 11 12 19 7 19 -12z m-406 -6 c0 -8
-4 -15 -10 -15 -5 0 -7 7 -4 15 4 8 8 15 10 15 2 0 4 -7 4 -15z m685 -5 c3 -5
1 -10 -4 -10 -6 0 -11 5 -11 10 0 6 2 10 4 10 3 0 8 -4 11 -10z m-900 -19 c-3
-6 -11 -11 -17 -11 -6 0 -6 6 2 15 14 17 26 13 15 -4z m185 15 c0 -2 -9 -6
-20 -9 -11 -3 -18 -1 -14 4 5 9 34 13 34 5z m80 -27 c0 -10 -4 -19 -9 -19 -16
0 -20 -40 -4 -49 10 -5 12 -11 5 -15 -12 -7 -22 6 -38 52 -10 29 -10 33 3 28
9 -4 17 1 20 14 6 24 23 16 23 -11z m270 10 c0 -6 -4 -7 -10 -4 -5 3 -10 11
-10 16 0 6 5 7 10 4 6 -3 10 -11 10 -16z m44 15 c20 -8 9 -34 -15 -34 -18 0
-26 20 -12 33 8 8 8 8 27 1z m570 -23 c-2 -3 -12 3 -22 13 -16 17 -16 18 5 5
12 -7 20 -15 17 -18z m-480 5 c-3 -7 2 -16 11 -19 14 -6 13 -9 -2 -27 -18 -21
-53 -27 -53 -10 0 18 30 70 40 70 5 0 7 -6 4 -14z m-719 -6 c3 -5 1 -10 -4
-10 -6 0 -11 5 -11 10 0 6 2 10 4 10 3 0 8 -4 11 -10z m765 0 c0 -5 -2 -10 -4
-10 -3 0 -8 5 -11 10 -3 6 -1 10 4 10 6 0 11 -4 11 -10z m-680 -21 c0 -6 -4
-7 -10 -4 -5 3 -10 11 -10 16 0 6 5 7 10 4 6 -3 10 -11 10 -16z m886 -6 c-10
-10 -19 5 -10 18 6 11 8 11 12 0 2 -7 1 -15 -2 -18z m348 19 c2 -4 -4 -8 -14
-8 -10 0 -16 4 -14 8 3 4 9 8 14 8 5 0 11 -4 14 -8z m-1194 -12 c0 -5 -2 -10
-4 -10 -3 0 -8 5 -11 10 -3 6 -1 10 4 10 6 0 11 -4 11 -10z m83 -14 c4 -10 1
-13 -8 -9 -8 3 -12 9 -9 14 7 12 11 11 17 -5z m194 -22 c-9 -9 -28 6 -21 18 4
6 10 6 17 -1 6 -6 8 -13 4 -17z m393 5 c0 -6 -4 -7 -10 -4 -5 3 -10 11 -10 16
0 6 5 7 10 4 6 -3 10 -11 10 -16z m485 -11 c-9 -43 -11 -44 -34 -24 -15 13
-20 14 -24 4 -3 -8 -6 -6 -6 5 -1 14 4 17 19 12 16 -5 20 -2 20 14 0 12 6 21
16 21 12 0 14 -7 9 -32z m-640 13 c3 -5 1 -12 -5 -16 -5 -3 -10 1 -10 9 0 18
6 21 15 7z m-58 -22 c1 -15 -2 -19 -13 -15 -9 3 -20 6 -25 6 -19 0 -8 19 14
23 12 2 22 5 22 6 1 0 1 -8 2 -20z m243 -28 c0 -11 -4 -9 -14 4 -8 11 -12 24
-9 28 7 11 23 -12 23 -32z m140 29 c0 -5 -2 -10 -4 -10 -3 0 -8 5 -11 10 -3 6
-1 10 4 10 6 0 11 -4 11 -10z m-742 -25 c0 -13 -5 -22 -10 -19 -5 3 -7 13 -4
21 5 11 2 13 -9 9 -9 -3 -13 -2 -10 4 12 19 33 10 33 -15z m550 -6 c-1 -17
-10 -35 -20 -40 -10 -5 -18 -16 -18 -23 0 -20 -37 -50 -42 -34 -3 7 10 26 29
43 18 16 35 41 37 55 6 32 5 30 11 30 3 0 4 -14 3 -31z m-32 -6 c-7 -7 -26 7
-26 19 0 6 6 6 15 -2 9 -7 13 -15 11 -17z m452 2 c-3 -3 -9 2 -12 12 -6 14 -5
15 5 6 7 -7 10 -15 7 -18z m-628 -6 c0 -15 -30 -23 -42 -11 -6 6 -7 15 -4 20
7 12 46 4 46 -9z m792 0 c-13 -11 -30 -19 -40 -17 -13 3 -10 8 13 21 41 22 53
21 27 -4z m-1108 -4 c3 -8 1 -15 -4 -15 -6 0 -10 7 -10 15 0 8 2 15 4 15 2 0
6 -7 10 -15z m146 1 c0 -11 -19 -15 -25 -6 -3 5 1 10 9 10 9 0 16 -2 16 -4z
m432 -22 c-24 -16 -30 -36 -9 -28 7 2 13 -4 14 -16 2 -19 1 -19 -22 -2 -26 18
-32 32 -14 32 6 0 8 7 5 16 -3 8 -2 13 2 10 4 -2 14 -1 22 4 24 15 25 1 2 -16z
m334 9 c-2 -9 -8 -19 -14 -21 -14 -4 -15 0 -6 22 8 21 23 20 20 -1z m-453 -12
c-12 -10 -19 -21 -16 -25 4 -3 1 -6 -6 -6 -7 0 -19 6 -26 14 -12 11 -10 14 13
14 14 0 28 5 30 11 2 6 9 11 15 11 7 -1 2 -9 -10 -19z m-413 -1 c0 -5 -4 -10
-10 -10 -5 0 -10 5 -10 10 0 6 5 10 10 10 6 0 10 -4 10 -10z m321 -13 c-10 -9
-11 -8 -5 6 3 10 9 15 12 12 3 -3 0 -11 -7 -18z m-191 3 c0 -5 -5 -10 -11 -10
-5 0 -7 5 -4 10 3 6 8 10 11 10 2 0 4 -4 4 -10z m111 -3 c-1 -4 -1 -13 -1 -20
0 -11 -18 -14 -49 -8 -2 1 4 10 14 21 17 19 37 23 36 7z m849 3 c0 -5 -4 -10
-10 -10 -5 0 -10 5 -10 10 0 6 5 10 10 10 6 0 10 -4 10 -10z m-525 -10 c-4 -6
0 -21 9 -34 14 -22 14 -24 -5 -29 -18 -5 -20 -2 -15 19 4 13 2 24 -3 24 -6 0
-8 7 -5 15 4 8 10 15 16 15 5 0 6 -5 3 -10z m227 -5 c0 -5 -5 -11 -11 -13 -6
-2 -11 4 -11 13 0 9 5 15 11 13 6 -2 11 -8 11 -13z m85 -7 c0 -13 3 -31 7 -40
6 -14 3 -18 -11 -18 -29 0 -31 6 -19 45 12 40 24 46 23 13z m-912 3 c3 -5 1
-12 -5 -16 -5 -3 -10 1 -10 9 0 18 6 21 15 7z m635 -11 c0 -5 -5 -10 -11 -10
-5 0 -7 5 -4 10 3 6 8 10 11 10 2 0 4 -4 4 -10z m-139 -7 c0 -5 2 -16 4 -26 2
-10 -2 -17 -8 -14 -15 5 -22 47 -8 47 6 0 11 -3 12 -7z m347 -21 c6 -18 -15
-14 -22 4 -4 10 -1 14 6 12 6 -2 14 -10 16 -16z m237 -2 c3 -5 1 -10 -4 -10
-6 0 -11 5 -11 10 0 6 2 10 4 10 3 0 8 -4 11 -10z m-430 -20 c3 -5 1 -10 -4
-10 -6 0 -11 5 -11 10 0 6 2 10 4 10 3 0 8 -4 11 -10z m-172 -17 c-7 -2 -19
-2 -25 0 -7 3 -2 5 12 5 14 0 19 -2 13 -5z m-63 -13 c0 -5 -4 -10 -10 -10 -5
0 -10 5 -10 10 0 6 5 10 10 10 6 0 10 -4 10 -10z m252 -9 c4 -4 -1 -7 -12 -7
-11 0 -20 4 -20 9 0 4 -4 5 -10 2 -5 -3 -10 -1 -10 5 0 11 37 5 52 -9z"/>
<path d="M2031 1691 c-7 -5 -9 -11 -4 -14 5 -3 15 -2 22 2 7 5 9 11 4 14 -5 3
-15 2 -22 -2z"/>
<path d="M1240 1600 c0 -5 5 -10 11 -10 5 0 7 5 4 10 -3 6 -8 10 -11 10 -2 0
-4 -4 -4 -10z"/>
<path d="M1160 1550 c0 -5 7 -10 16 -10 8 0 12 5 9 10 -3 6 -10 10 -16 10 -5
0 -9 -4 -9 -10z"/>
<path d="M1380 1540 c0 -5 5 -10 10 -10 6 0 10 5 10 10 0 6 -4 10 -10 10 -5 0
-10 -4 -10 -10z"/>
<path d="M1132 1519 c2 -6 8 -10 13 -10 5 0 11 4 13 10 2 6 -4 11 -13 11 -9 0
-15 -5 -13 -11z"/>
<path d="M1295 1520 c3 -5 11 -10 16 -10 6 0 7 5 4 10 -3 6 -11 10 -16 10 -6
0 -7 -4 -4 -10z"/>
<path d="M1391 1214 c0 -11 3 -14 6 -6 3 7 2 16 -1 19 -3 4 -6 -2 -5 -13z"/>
<path d="M2787 2865 c-7 -16 108 -142 125 -137 5 1 7 -2 3 -7 -9 -15 57 -100
79 -100 12 -1 16 -6 12 -16 -8 -23 14 -64 43 -80 20 -11 22 -14 8 -15 -10 0
-15 -5 -12 -10 4 -6 11 -8 16 -5 5 3 6 -1 3 -10 -4 -8 0 -25 8 -38 53 -81 118
-324 132 -490 2 -21 6 -40 9 -43 12 -13 26 36 21 77 -2 24 -6 64 -9 88 -6 63
-50 231 -73 282 -11 24 -23 54 -27 67 -4 14 -12 21 -21 18 -7 -3 -16 -1 -19 4
-4 6 -1 10 5 10 15 0 4 36 -26 83 -14 21 -29 35 -34 32 -5 -3 -12 0 -16 6 -4
7 -3 9 4 5 24 -15 19 13 -8 45 -16 19 -29 39 -30 46 0 6 -8 18 -18 25 -10 7
-23 20 -28 29 -14 25 -126 149 -134 149 -4 0 -10 -7 -13 -15z"/>
<path d="M585 2328 c-24 -73 -54 -201 -49 -210 2 -3 0 -9 -6 -13 -7 -4 -7 -12
0 -26 11 -20 30 -26 30 -8 0 5 -5 7 -11 3 -7 -4 -9 2 -7 17 2 13 8 23 15 22 6
-1 16 24 22 57 7 32 22 90 36 129 13 38 21 72 17 75 -15 16 -31 1 -47 -46z"/>
<path d="M535 1980 c3 -5 8 -10 11 -10 2 0 4 5 4 10 0 6 -5 10 -11 10 -5 0 -7
-4 -4 -10z"/>
<path d="M3212 1878 c-1 -7 -4 -39 -7 -70 -2 -31 -6 -63 -7 -70 -2 -7 2 -12 8
-11 6 1 11 -4 11 -12 0 -7 -6 -11 -14 -8 -9 4 -13 -5 -14 -28 -3 -62 -4 -67
-11 -75 -12 -11 -10 -44 2 -44 6 0 10 -8 9 -17 0 -11 -3 -13 -6 -5 -7 18 -25
14 -22 -5 1 -10 -3 -31 -9 -46 -7 -16 -12 -32 -12 -37 0 -4 -7 -21 -15 -36
-16 -32 -19 -53 -9 -79 9 -22 52 81 61 143 3 23 9 42 13 42 13 0 18 64 6 79
-9 12 -8 13 7 8 11 -4 17 -2 17 8 0 8 -4 15 -10 15 -15 0 -12 21 5 40 22 25
34 220 13 220 -8 0 -15 -6 -16 -12z m-72 -492 c0 -3 -4 -8 -10 -11 -5 -3 -10
-1 -10 4 0 6 5 11 10 11 6 0 10 -2 10 -4z"/>
<path d="M527 1762 c-12 -2 -16 -10 -13 -27 2 -13 7 -48 11 -78 6 -46 10 -55
26 -54 22 1 21 -2 6 92 -10 58 -15 70 -30 67z"/>
<path d="M550 1553 c0 -22 33 -131 47 -158 6 -11 19 -41 28 -67 9 -26 27 -63
40 -82 13 -19 25 -42 27 -53 2 -11 11 -17 23 -15 16 2 17 1 6 -7 -12 -8 -11
-15 9 -44 14 -20 28 -33 32 -31 4 3 8 -4 8 -16 0 -11 7 -23 15 -26 8 -4 15
-12 15 -19 0 -7 4 -15 8 -17 4 -1 25 -24 47 -50 22 -27 47 -48 56 -48 11 0 19
-9 21 -22 2 -12 12 -27 24 -33 11 -6 33 -24 48 -40 17 -18 26 -23 22 -12 -8
27 3 20 14 -8 11 -29 22 -31 40 -10 9 10 9 15 1 16 -22 3 -27 6 -72 50 -25 24
-62 59 -82 77 -20 18 -37 37 -37 42 0 6 -7 10 -16 10 -9 0 -12 -5 -8 -12 4 -7
3 -8 -5 -4 -9 6 -9 11 1 24 11 13 10 15 -4 9 -12 -4 -15 -2 -11 9 3 9 -1 14
-12 14 -9 0 -14 4 -11 9 3 4 -20 46 -50 92 -60 90 -110 184 -139 262 -10 26
-23 47 -29 47 -8 0 -12 19 -13 50 -1 47 -15 80 -34 80 -5 0 -9 -8 -9 -17z"/>
<path d="M3074 1298 c-10 -24 -22 -51 -26 -60 -5 -13 -3 -18 10 -18 11 0 26
16 39 43 17 36 19 46 8 60 -11 16 -15 13 -31 -25z"/>
<path d="M3011 1186 c-8 -13 -10 -30 -6 -37 5 -7 4 -10 -2 -6 -6 4 -16 0 -23
-8 -11 -13 -9 -15 10 -12 34 5 62 44 50 68 -13 24 -14 24 -29 -5z"/>
<path d="M2925 1060 c-10 -11 -15 -20 -11 -20 3 0 -8 -14 -26 -31 -18 -17 -28
-28 -21 -25 7 4 9 -1 6 -16 l-6 -23 27 24 c30 28 32 33 10 24 -12 -4 -15 -2
-12 8 3 8 12 13 20 11 16 -2 31 12 41 40 9 26 -8 30 -28 8z"/>
<path d="M2822 933 c-6 -2 -10 -9 -6 -14 8 -14 21 -11 28 6 6 15 1 17 -22 8z"/>
<path d="M2737 860 c-31 -34 -34 -47 -12 -47 8 0 15 5 15 11 0 6 14 19 32 29
25 15 29 20 17 28 -21 13 -23 12 -52 -21z"/>
<path d="M1110 770 c0 -5 5 -10 10 -10 6 0 9 -5 8 -12 -2 -7 7 -13 20 -14 39
-3 42 -4 42 -15 0 -6 -7 -8 -16 -5 -8 3 -13 2 -10 -3 3 -5 15 -11 26 -14 14
-4 20 0 20 12 0 16 -30 38 -54 39 -5 0 -13 7 -18 16 -10 18 -28 22 -28 6z"/>
<path d="M2540 720 c-9 -6 -11 -10 -3 -10 7 0 10 -7 6 -16 -5 -14 -3 -14 16
-3 23 15 29 39 9 39 -7 0 -20 -5 -28 -10z"/>
<path d="M2441 671 c-7 -5 -10 -14 -7 -20 4 -6 3 -11 -3 -11 -5 0 -11 4 -13
10 -1 5 -44 -6 -93 -25 -93 -35 -253 -71 -338 -78 -29 -2 -54 -10 -65 -21 -16
-17 -14 -18 43 -12 122 11 164 17 217 31 29 9 60 17 69 19 109 28 232 81 227
98 -6 16 -20 20 -37 9z"/>
<path d="M1310 650 c0 -11 4 -20 8 -20 4 0 8 9 9 20 1 11 -2 20 -8 20 -5 0 -9
-9 -9 -20z"/>
<path d="M1340 641 c0 -5 9 -13 20 -16 11 -3 20 -11 20 -16 0 -5 6 -9 13 -9 8
0 14 7 14 15 0 8 -4 12 -9 9 -4 -3 -15 2 -24 10 -17 18 -34 21 -34 7z"/>
<path d="M1452 588 c5 -15 28 -23 28 -10 0 5 -7 13 -16 16 -10 4 -14 1 -12 -6z"/>
<path d="M1544 565 c-16 -12 -17 -14 -2 -15 9 0 19 6 21 13 4 7 6 6 6 -4 1
-19 22 -24 183 -44 39 -5 47 -3 42 9 -7 17 -26 25 -80 31 -61 7 -118 16 -135
21 -8 2 -24 -3 -35 -11z"/>
</g>
</svg>
